<?xml version="1.0" encoding="UTF-8"?>
<svg version="1.1" width="1024" height="1024" viewBox="0 0 1024 1024" xmlns="http://www.w3.org/2000/svg" xmlns:xlink="http://www.w3.org/1999/xlink">
	<defs>
		<linearGradient id="k" x1="153.797" x2="157.835" y1="540.359" y2="289.381" gradientTransform="matrix(.877086 0 0 .877086 -52.9335 -259.195)" gradientUnits="userSpaceOnUse" xlink:href="#j">
			<stop stop-color="#056a7f" offset="0"/>
			<stop stop-color="#7f7f35" offset="1"/>
		</linearGradient>
		<linearGradient id="t" x1="232.742" x2="227.502" y1="10.9579" y2="394.326" gradientTransform="matrix(2.79069 0 0 2.79069 -79.132 -68.3286)" gradientUnits="userSpaceOnUse" xlink:href="#j">
			<stop stop-color="#dad7cf" offset="0"/>
			<stop stop-color="#e9ebe9" offset="1"/>
		</linearGradient>
		<linearGradient id="s" x1="346.845" x2="348.688" y1="604.608" y2="504.15" gradientTransform="matrix(3.70931 0 0 3.70931 -726.302 -1813.47)" gradientUnits="userSpaceOnUse">
			<stop stop-color="#ffffff" stop-opacity="0" offset="0"/>
			<stop stop-color="#ffffff" stop-opacity=".463519" offset="1"/>
		</linearGradient>
		<linearGradient id="r" x1="346.845" x2="347.865" y1="604.608" y2="754.004" gradientTransform="matrix(-3.70931 0 0 3.70931 1747.48 -1764.01)" gradientUnits="userSpaceOnUse">
			<stop stop-color="#000000" stop-opacity="0" offset="0"/>
			<stop stop-color="#000000" stop-opacity=".296137" offset="1"/>
		</linearGradient>
		<linearGradient id="l" x1="182.75" x2="177.58" y1="226.036" y2="52.2693" gradientTransform="matrix(.877086 0 0 .877086 -56.5012 -20.004)" gradientUnits="userSpaceOnUse">
			<stop stop-color="#0bd5ff" offset="0"/>
			<stop stop-color="#ffff6b" offset="1"/>
		</linearGradient>
		<linearGradient id="q" x1="191.632" x2="189.061" y1="356.691" y2="56.8102" gradientTransform="matrix(2.79019 0 0 2.79019 -80.44 -67.0801)" gradientUnits="userSpaceOnUse">
			<stop stop-color="#dad7cf" offset="0"/>
			<stop stop-color="#e9ebe9" offset="1"/>
		</linearGradient>
		<linearGradient id="u" x1="173.174" x2="173.174" y1="452.9" y2="346.9" gradientTransform="matrix(5.00001 0 0 5.00001 -385.87 -1500.5)" gradientUnits="userSpaceOnUse">
			<stop stop-color="#dbdcd8" offset="0"/>
			<stop stop-color="#ffffff" offset="1"/>
		</linearGradient>
		<linearGradient id="p" x1="309.889" x2="314.802" y1="330.752" y2="592.136" gradientTransform="matrix(2.88425 0 0 2.88425 -575.702 -800.922)" gradientUnits="userSpaceOnUse" xlink:href="#l"/>
		<linearGradient id="o" x1="192.637" x2="192.637" y1="187.42" y2="96.0801" gradientTransform="matrix(5.80251 0 0 5.80251 -647.782 -323.506)" gradientUnits="userSpaceOnUse" xlink:href="#k"/>
		<linearGradient id="n" x1="182.75" x2="177.58" y1="226.036" y2="52.2693" gradientTransform="matrix(4.38544 0 0 4.38544 -282.507 -100.02)" gradientUnits="userSpaceOnUse" xlink:href="#l"/>
		<linearGradient id="m" x1="153.797" x2="157.835" y1="540.359" y2="289.381" gradientTransform="matrix(4.38544 0 0 4.38544 -264.669 -1295.98)" gradientUnits="userSpaceOnUse" xlink:href="#k"/>
	</defs>
	<path d="m67.0843 724.597c-118.879-244.403-17.124-538.901 227.276-657.781 244.401-118.879 541.326-9.84532 660.206 234.556 118.88 244.401 14.6991 531.621-229.702 650.501-244.403 118.88-538.901 17.124-657.781-227.278z" style="fill:url(#m);stroke-width:5.00001"/>
	<path d="m512 2.00388c-281.668 0-509.996 228.332-509.996 509.996 0 281.666 228.332 509.996 509.996 509.996 281.67 0 509.996-228.333 509.996-509.996 0-281.668-228.326-509.996-509.996-509.996zm0 37.7612c260.843 0 472.322 211.393 472.322 472.238 0 260.847-211.479 472.325-472.322 472.325-260.845 0-472.238-211.479-472.238-472.325 0-260.845 211.393-472.238 472.238-472.238z" style="fill:url(#t);stroke-width:4.00781;stroke:#606060"/>
	<path d="m76.3913 488.486c0-239.8 194.396-434.198 434.197-434.198 239.804 0 434.195 194.397 434.195 434.198 0 239.801-194.392 434.199-434.195 434.199-239.801 0-434.197-194.398-434.197-434.199z" style="fill:url(#s);stroke-width:5.00001"/>
	<path d="m944.781 537.951c0-239.8-194.392-434.197-434.195-434.197-239.801 0-434.197 194.396-434.197 434.197s194.396 434.199 434.197 434.199c239.804 0 434.195-194.398 434.195-434.199z" style="fill:url(#r);stroke-width:5.00001"/>
	<path d="m132.101 510.966c0-209.032 169.454-378.487 378.487-378.487 209.029 0 378.485 169.454 378.485 378.487 0 209.032-169.455 378.487-378.485 378.487-209.033 0-378.487-169.455-378.487-378.487z" style="fill:url(#p);stroke-width:5.00001"/>
	<path d="m446.162 134.735c-48.306 5.99953-152.183 87.4397-186.93 147.735-24.5437 42.5906-33.5328 110.075-19.5972 161.713 4.70127 17.4196 11.5706 33.2406 19.4603 48.1024 0.41099 1.37938 0.81195 3.02159 1.23355 4.24834-0.41 0.72597-1.11365 1.32482-1.50736 2.05571-7.85631 14.5907-13.8899 30.7516-17.9529 47.6916-3.93291 16.3985-5.89327 33.3263-5.89327 49.7487 0 23.5131 3.71361 47.4621 10.553 69.8922-16.8392 9.35896-35.1702 16.906-58.2441 20.8294l3.42547 19.4602c24.5791-4.18218 44.072-12.1652 62.0816-21.926 6.56825 15.026 15.1064 29.7524 30.424 51.2562 42.9366 60.2811 99.0077 97.3492 163.22 112.784 53.0091 12.7442 109.446 9.93104 158.969-4.93151 49.8461-14.958 90.9872-37.2314 125.126-65.3697 25.4816-21.0065 44.5059-42.626 63.1761-69.0682 69.1906-98.0167 81.0017-229.631 29.4663-339.738-57.5431-122.923-176.069-200.507-320.002-192.959-20.4799 1.07416-44.2158 6.35506-69.6192 15.0751-30.2251 10.3752-49.2583 18.2622-64.9591 28.2314-58.8071 37.3424-104.094 102.167-114.706 160.206 1.60341-32.1322 9.09732-64.2201 22.475-87.4352 31.8885-55.3346 130.756-132.849 172.265-138.004zm58.1071 61.1217c135.589-7.10992 246.833 65.8146 301.086 181.722 48.5315 103.678 37.2926 227.769-27.8179 320.003-17.7371 25.1206-35.6579 45.4801-59.6136 65.2332-32.1363 26.4897-70.8392 47.4758-118.138 61.6706-46.3049 13.8953-99.3592 16.545-148.827 4.65893-59.6561-14.3449-111.58-48.6405-151.709-104.978-15.3162-21.5037-23.3544-35.5966-29.3273-49.8871 27.9671-16.4972 47.518-29.6706 60.2996-43.3071 28.7967 19.4126 64.3326 30.9444 103.195 31.3871 96.3792 1.09666 165.266-63.4351 153.761-167.744-1.76415-16.0198-9.50057-30.8449-20.828-43.5803-5.58201-18.3009-14.0146-35.2676-26.4496-49.4735-27.241-31.1209-68.0212-48.2993-109.91-46.8696-69.4331 2.36979-134.049 46.7279-157.327 105.388-3.13736-22.1658-3.87846-45.5154-1.09666-68.7971 6.46202-54.0852 50.6111-118.735 107.718-154.998 14.0118-8.89713 31.8816-16.4163 60.7111-26.3126 23.8046-8.17101 45.8546-13.1495 64.2741-14.116zm-73.7307 178.57c36.0448-1.23016 71.2752 13.552 94.5612 40.1541 3.01681 3.44661 4.97441 7.61316 7.53757 11.3745-20.5147-9.94405-43.7546-14.3613-66.0562-11.2375-17.8542 2.50042-32.1119 8.58305-44.4024 17.6791-20.2988-11.3935-44.9303-13.4554-71.1266-6.30461-19.5556 5.33868-38.518 15.6343-54.9546 28.9166 24.1002-45.066 77.5912-78.6422 134.441-80.5822zm55.6406 59.0661c16.8985 0.83434 33.748 6.28089 48.1024 15.4866 5.53362 3.54799 10.3724 7.60355 14.6636 11.9226 5.62971 21.1911 6.41506 44.9344 0.5485 70.9887-9.12112 40.5029-46.8109 68.1641-92.3677 76.7467-37.6142 7.08379-71.7972 1.49168-100.591-15.7618 2.86421-5.31974 5.73726-11.1231 8.63416-17.267 26.8528 3.20147 53.1801-4.27754 72.7707-20.8314 27.1647-22.9504 35.1389-57.8086 17.1301-89.0787-4.74006-8.2316-10.4426-15.0738-16.5824-20.9683 8.68597-5.31491 18.6586-8.84663 30.8354-10.5522 5.51591-0.77214 11.2239-0.96317 16.8569-0.68517zm-104.977 8.08589c9.11236 0.0528 17.5558 2.16952 25.3529 5.48187-3.05225 3.59161-6.15281 7.04646-8.90736 11.2375-6.94767 10.568-12.7489 22.4294-20.2831 40.1541 0.462-1.08647-11.9153 28.4683-15.7596 37.1393-0.50271 1.13279-4.26121 9.71716-7.53752 17.1308-3.43365-0.99377-6.88296-1.4229-10.2785-2.87855-23.9068-10.2458-43.7261-29.4084-59.3406-53.5841 17.0613-23.7113 43.801-43.4713 71.8116-51.1176 8.69003-2.37255 17.017-3.6115 24.9421-3.56312zm42.0729 15.7596c5.49887 4.91518 10.4753 10.9542 14.6637 18.2274 13.0207 22.61 7.43127 47.0902-12.7456 64.1372-13.738 11.6067-31.9477 16.9851-50.9801 16.3079 2.45146-5.55668 5.12767-11.5358 5.48187-12.3341 3.95265-8.91617 16.3005-38.8224 15.7596-37.55 7.10841-16.7235 12.4888-27.647 18.6381-37.0018 2.8962-4.40631 5.94641-8.23919 9.18252-11.7866zm-157.602 75.3747c5.97772 34.9823 23.193 64.6036 48.5138 86.6117-10.6265 10.7757-28.1953 22.287-50.9811 35.9099-5.33881-19.1606-8.49663-39.2816-8.49663-59.2051 0-14.8626 1.77166-30.1938 5.34497-45.089 1.49985-6.25421 3.53921-12.2762 5.61876-18.2274zm298.621 17.2678c-13.6808 59.0996-63.6126 93.4017-130.603 92.6457-34.421-0.39492-65.7836-10.2853-91.1352-27.0005 1.30505-1.87318 2.45005-3.9711 3.69996-5.89201 33.0968 19.8554 72.2032 26.1764 114.433 18.2274 47.441-8.93657 87.9612-36.3867 103.605-77.9806zm-248.326 7.12675c6.41161 4.11409 13.0146 7.8291 20.0086 10.8262 3.20139 1.37451 6.49131 1.70149 9.73082 2.74365-1.76551 3.65084-3.60327 7.24738-5.34492 10.5509-8.94547-7.118-17.1151-15.1636-24.3945-24.1207zm-19.4603 7.53758c9.78872 12.9186 21.1556 23.9396 33.8501 33.7139-1.2206 1.89353-2.42965 3.9302-3.69996 5.7557-12.5964-11.0755-22.6548-24.494-30.1502-39.4696z" style="fill:url(#n);stroke-width:5.00001"/>
	<path d="m438.837 248.986c-5.20667 0.24519-11.2007 1.2383-17.7697 2.90101-6.56897 1.66266-13.5956 3.94728-20.6714 7.07168-7.07642 3.125-14.3068 6.97285-21.0344 11.6053-6.72696 4.63246-13.2469 9.76624-19.2205 15.2311-5.97431 5.4655-11.4119 11.3519-15.9564 17.408-4.54461 6.05676-8.07637 12.2729-10.5176 18.6769-6.17862 17.336-2.61806 37.0303 2.17626 53.3096 2.94934 9.83849 6.94496 18.2697 11.6047 25.5675 4.66037 7.29768 9.98417 13.3586 15.7759 18.495 5.79182 5.13726 11.9677 9.33988 18.3139 12.6931 6.34556 3.35331 12.8975 5.84905 19.2206 7.7971 6.32306 1.94804 12.4111 3.43093 18.1327 4.35184 5.72162 0.92097 11.0516 1.36025 15.5941 1.63201 4.54256 0.27132 8.27452 0.36176 11.0611 0.36176 0 0-1.7839 4.24623-7.43467 9.97329-8.39647 8.5102-37.8927 52.4781-69.8112 101.181h-104.263v31.915h83.2292c-7.26237 11.2185-9.77578 15.4075-16.8631 26.4694h-89.5762v33.0014h68.9046c-24.1281 38.219-54.6586 86.0352-55.3046 88.4942-0.1905 0.71536 2.28525 1.20569 6.70861 1.62799 4.42401 0.42255 231.771 0.12259 236.338 0 4.27486-0.10903-109.899-40.7052-104.15-90.1222h71.9877v-33.0014h-65.4592c0.24951-0.87158 0.47001-1.66201 0.72541-2.53384 2.2743-7.81277 4.90696-15.932 7.79706-23.9355h85.0427v-31.915h-72.1687c3.78172-8.45438 7.73783-16.6839 11.9677-24.8427 4.50371-8.68591 9.26152-17.1259 14.1433-25.2043 4.88176-8.0777 9.92287-15.8394 15.0505-23.0282 5.12561-7.1887 10.3548-13.928 15.5934-19.9458 5.23872-6.01798 10.5584-11.3908 15.776-15.9572 1.54556-1.35342 7.72826-7.90608 17.5885-16.6826 9.86093-8.77594 23.3353-19.7028 39.3484-29.7374 16.0123-10.0346 38.9246-19.6258 61.1096-25.0232 22.1849-5.39671 43.6614-6.66024 56.7531 0.36326 51.8621 27.8125 33.09 57.2911 82.1392 53.6726 52.2436-3.85328 62.2566-23.601 44.431-62.3767-3.89611-8.46659-12.9826-24.6344-31.0124-37.3539-18.0231-12.7198-51.5011-26.1703-109.16-14.6876-15.1214 3.01135-29.5208 8.74725-43.3343 14.5063-13.8136 5.75846-26.8507 12.2422-38.9853 19.2206-12.1338 6.97828-23.248 14.3925-33.1826 21.7591-10.1388 7.51789-19.9309 14.6052-29.375 20.6721-9.44406 6.06555-18.6865 11.0345-27.9249 14.5056-9.23837 3.47178-18.4025 5.52548-27.9242 5.25839-9.52107-0.26529-19.2621-2.83082-29.5563-7.97817-5.57036-2.78591-10.4446-6.14871-14.6875-9.97264-4.24351-3.82464-7.94077-8.09474-10.8799-12.6931-2.93846-4.59849-5.23392-9.39846-6.89047-14.5064-1.65655-5.10725-2.68506-10.4235-3.08215-15.7753-0.39851-5.35174-0.1145-10.807 0.7254-16.1383 0.83914-5.33069 2.2975-10.5488 4.35111-15.5942 2.05365-5.04451 4.73331-10.0114 7.97897-14.5063 3.24495-4.49554 7.00896-8.65124 11.4234-12.3301 1.08915-0.90795 3.10466-2.40099 5.62151-4.35179 2.51546-1.95081 5.64737-4.22714 8.88482-6.5281 3.23751-2.30085 6.53902-4.57111 9.79147-6.52809 3.25245-1.95618 6.32307-3.61487 8.88487-4.53302 2.34926-0.84224 4.44716-2.07536 5.98382-3.62638 1.53734-1.55027 2.56655-3.50655 3.08285-5.43967 0.5163-1.93307 0.52995-3.99356-0.181-5.98376-0.71181-1.99029-2.20486-3.8996-4.35181-5.62155-2.99021-1.12661-7.30462-1.51424-12.5119-1.269z" style="fill:url(#o);stroke-linejoin:round;stroke-width:13;stroke:url(#u)"/>
	<path d="m510.585 119.99c-217.137 0-393.156 176.018-393.156 393.156 0 217.138 176.018 393.153 393.156 393.153 217.135 0 393.156-176.014 393.156-393.153 0-217.137-176.021-393.156-393.156-393.156zm0 27.989c201.687 0 365.25 163.479 365.25 365.167 0 201.69-163.563 365.253-365.25 365.253-201.688 0-365.167-163.563-365.167-365.253 0-201.688 163.479-365.167 365.167-365.167z" style="fill:url(#q);stroke-width:5.00001"/>
</svg>